<svg xmlns="http://www.w3.org/2000/svg" viewBox="0 0 98 96" width="98" height="96">
  <path fill-rule="evenodd" clip-rule="evenodd" d="M48.854 0C21.839 0 0 22 0 49.217c0 21.756 13.993 40.172 33.405 46.69 2.427.49 3.316-1.059 3.316-2.362 0-1.141-.08-5.052-.08-9.127-13.59 2.934-16.42-5.867-16.42-5.867-2.184-5.704-5.42-7.17-5.42-7.17-4.448-3.015.324-3.015.324-3.015 4.934.326 7.523 5.052 7.523 5.052 4.367 7.496 11.404 5.378 14.235 4.074.404-3.178 1.699-5.378 3.074-6.6C29.304 70.2 17.816 65.89 17.816 46.94c0-5.46 1.94-9.94 5.078-13.41-.484-1.302-2.184-6.354.486-13.2 0 0 4.125-1.304 13.426 5.052a46.97 46.97 0 0112.214-1.63c4.125 0 8.33.57 12.213 1.63 9.302-6.356 13.427-5.052 13.427-5.052 2.67 6.846.97 11.898.485 13.2 3.22 3.47 5.077 7.95 5.077 13.41 0 19.113-11.57 23.178-22.558 24.396 1.78 1.548 3.316 4.481 3.316 9.126 0 6.6-.08 11.897-.08 13.526 0 1.304.89 2.853 3.316 2.364 19.412-6.52 33.405-24.935 33.405-46.691C97.707 22 75.788 0 48.854 0z" fill="#fff"/>
</svg>
