<svg xmlns="http://www.w3.org/2000/svg" viewBox="0 0 24 24" width="24" height="24" fill="none">
  <path d="M22.282 9.821a5.985 5.985 0 00-.516-4.91 6.046 6.046 0 00-6.51-2.9A6.065 6.065 0 0011.72.4a6.044 6.044 0 00-5.772 4.206 5.984 5.984 0 00-3.998 2.9 6.045 6.045 0 00.743 7.097 5.98 5.98 0 00.51 4.911 6.051 6.051 0 006.515 2.9A5.985 5.985 0 0013.26 23.6a6.044 6.044 0 005.772-4.206 5.984 5.984 0 003.997-2.9 6.045 6.045 0 00-.747-6.672zM13.26 22.43a4.476 4.476 0 01-2.876-1.04l.143-.08 4.778-2.758a.795.795 0 00.392-.681v-6.737l2.02 1.168a.071.071 0 01.038.052v5.583a4.504 4.504 0 01-4.494 4.494zM3.6 18.304a4.47 4.47 0 01-.535-3.014l.142.085 4.783 2.759a.771.771 0 00.78 0l5.843-3.369v2.332a.08.08 0 01-.033.062L9.74 19.95a4.5 4.5 0 01-6.14-1.646zM2.34 7.896a4.485 4.485 0 012.366-1.973V11.6a.766.766 0 00.388.676l5.815 3.355-2.02 1.168a.076.076 0 01-.071 0l-4.83-2.786A4.504 4.504 0 012.34 7.896zm16.597 3.855l-5.833-3.387L15.119 7.2a.076.076 0 01.071 0l4.83 2.791a4.494 4.494 0 01-.676 8.105v-5.678a.79.79 0 00-.407-.667zm2.01-3.023l-.141-.085-4.774-2.782a.776.776 0 00-.785 0L9.409 9.23V6.897a.066.066 0 01.028-.061l4.83-2.787a4.5 4.5 0 016.68 4.66zm-12.64 4.135l-2.02-1.164a.08.08 0 01-.038-.057V6.075a4.494 4.494 0 017.375-3.453l-.142.08L8.704 5.46a.795.795 0 00-.392.68zm1.097-2.365l2.602-1.5 2.607 1.5v2.999l-2.597 1.5-2.607-1.5z" fill="#fff"/>
</svg>
